# xmcd
#
# Track frame offsets:
#	150
#	14558
#	31575
#	62859
#	82016
#	98769
#	126698
#	142407
#	172928
#
# Disc length: 2784 seconds
#
# Revision: 1
# Processed by: cddbd v1.5.2PL0 Copyright (c) Steve Scherf et al.
# Submitted via: audiograbber 1.83.01
#
DISCID=7e0ade09
DTITLE=Andreas Diehlmann Band - Your Blues Ain't Mine
DYEAR=2018
DGENRE=Blues
TTITLE0=Come On Into My Kitchen
TTITLE1=Your Blues Ain't Mine
TTITLE2=I Don't Wanna Lose You
TTITLE3=I Don't Know
TTITLE4=Head Down Low
TTITLE5=Little Wing
TTITLE6=Going Home
TTITLE7=Soulshine
TTITLE8=F#cking Happy Blues
EXTD=
EXTT0=
EXTT1=
EXTT2=
EXTT3=
EXTT4=
EXTT5=
EXTT6=
EXTT7=
EXTT8=
PLAYORDER=
